<?xml version="1.0" encoding="utf-8"?>
<!-- Generator: Adobe Illustrator 15.1.0, SVG Export Plug-In . SVG Version: 6.00 Build 0)  -->
<!DOCTYPE svg PUBLIC "-//W3C//DTD SVG 1.1//EN" "http://www.w3.org/Graphics/SVG/1.1/DTD/svg11.dtd">
<svg version="1.1" id="Layer_2" xmlns="http://www.w3.org/2000/svg" xmlns:xlink="http://www.w3.org/1999/xlink" x="0px" y="0px"
	 width="515.208px" height="463.979px" viewBox="0 0 515.208 463.979" enable-background="new 0 0 515.208 463.979"
	 xml:space="preserve">
<path d="M325.986,120.707c-11.334,10.667-40.667,26-53.333,28.667s-13.333,1.333-22,7.333s-10.667,12-19.333,16
	s-10.667,5.333-14,3.333s-2.667-9.333-2.667-9.333s-6,6-8,9.333s-3.333,8.667-8,9.333s-8.667,2.666-14,7.333
	s-23.333,11.334-26.667,12.667s-24.667,12.667-29.333,16s-19.333,12.667-24.667,14.667s-19.334,16-22.667,20.667
	s-16.911,29.186-18.911,31.853s-1.089,10.814-1.755,16.814s0,60,1.333,68s3.255,24.353,3.922,31.686s9.559,42.455,9.833,46.5
	c0.25,3.669-10.75,12.419-12.25,12.419s-4-3-5.25-6.25s1.75-8.75,3-10.5s7-8.25,8-8.75s-1.75-5-1.75-5s-10.75-3-13.25-3.25
	s-9.25-4.5-9.25-4.5s7.25-9.75,8-13.5s-2.75-12.5-5.75-12s-6.75-3-6.75-3s1.25-0.75-0.5-3.5s-8.75-1.25-8.75-1.25
	s11.661-9.353,12.661-15.103s-2.25-3-3.75-2s-7.25-1-8.5-2.75s-1,0.5-2.75,0.25s1.25-6,2-8.75s2.5-5.5,2-6.75s-3.25-0.75-6.75-1.5
	s-5-4.75-5.5-7.25s2.75-17.75,3.75-19s-1.25-0.25-4.75-1.75s-4.5-10.25-4.25-12.25s2.75-10,2.75-10s-4-0.25-5.5-1.25
	s-1.75-5.25-1.25-8.25s8.5-19.5,8.5-19.5s-3-0.25-4-0.5s-8.25-5.75-8.25-5.75s-0.5-3,1.5-6.75s-6.25-7.5-6.75-5s-4.25-18-1.25-33.25
	s30-72,33-83.75s17.25-40.25,24-45.75s46.25-47.5,54.25-51.75s21-8.25,25-9s14.75-5,15.5-6s14.5-3.25,18.75-4.75
	s13.75-5.75,14.5-7.75s-15.25,2-18.25,4.5s-23.75,10.5-23.75,10.5s31.5-24.25,38-25s23.75-0.25,28.5-1.25s17.5-6.25,26.25-5.25
	s49.688,18.491,56.75,25c9.773-9.497,13.412-11.316,21.5-15.75c8.391-4.6,44-14.25,71.5,7s8.75,12.5,25.25,23.25s34,24.25,38,30.25
	s7.75,8.5,7,12.75s-3.5,5.25-1.75,7.75s18.25,21.75,20.5,27.5s-0.5,7,0.75,9.5s10.25,5.5,10.25,9.75s-2,7-3.5,7.5s-6,0.5-6,0.5
	s-0.5,1.75,4.5,6.75s12,14,12.75,17.25s-1.25,7.75,1,10.25s10.5,14.25,11.25,17.5s1,6.5,1,11.5s-4,2.75-6.5,2.5s-14-8.75-14-8.75
	s0.25,0.25,5.25,7s14.25,23.75,17.5,30s2.75,9.25,1.25,9s-3.5,0.5-3.5,0.5s7,5.25,7.5,8.25s-2.5,8.75-3.5,8.75s-2.75,2-2,2.75
	s-6,0.25-6,0.25s5.75,7,6.5,10s-3,6.25-3.75,9.75s-5,0-5,0s-1.25,1.25-0.75,4s-3.002,4.883-6.002,6.633s-3.248-0.383-2.248,3.367
	s0.963,6.669-0.537,9.169s-1.213,2.581-3.713,4.331s-0.472,3.068,0.528,5.818s-4.567,2.485-6.567,2.985s1.394,1.791,1.394,1.791
	s-3.613,5.618-7.363,6.368s-3.241,0.037-1.491,1.537s4.5,4,4.5,4s-0.44,3.862-2.44,5.362s-1.974,1.563,0.276,3.313
	s0.545,6.909-1.205,7.409s5.869,6.915,6.619,8.665s0,6-3.75,9s-5.5,4-4.5,6.75s-2.265,2.758-3.515,4.008s1.265,5.492,1.265,5.492
	s-2.34,6.64-4.287,7.922s-1.16,5.158-3.349,6.188s-1.114,1.64-3.114,3.64s-4.021,4.416-2.521,5.916s0.735,4.166,0.735,4.166
	s-6.399,4.842-8.746,5.117c-3.228,0.379,6.282,2.051,5.282,3.551s-5.75,6.5-7.25,6.5s-4.5-4-4.5-4s3.08-16.19,3.453-22.93
	c0.244-4.41,5.392-32.456,7.803-59.887c2.006-22.816-0.387-45.298-0.5-47c-0.25-3.75-0.006-16.434-4.756-22.184
	s-14.5-21.75-17.25-27.25s-28.25-43.5-32-47.25s-21.5-30-28.5-39C368.35,156.666,325.986,120.707,325.986,120.707z"/>
</svg>
